<svg xmlns="http://www.w3.org/2000/svg" width="1800" height="1260" viewBox="0 0 1800 1260">
<rect width="1800" height="1260" fill="#0d1420" />
<text x="48" y="60" font-family="Arial" font-size="38" font-weight="bold" fill="#ffffff" text-anchor="start">POInfra</text>
<text x="245" y="59" font-family="Arial" font-size="30" font-weight="bold" fill="#ffffff" text-anchor="start">Policy Optimization for Generative Models</text>
<text x="49" y="94" font-family="Arial" font-size="14" font-weight="bold" fill="#ff9b38" text-anchor="start">RESEARCH ARCHITECTURE</text>
<text x="310" y="94" font-family="Arial" font-size="19" font-weight="normal" fill="#9db0c8" text-anchor="start">Diffusion and flow policies for robot control and multi-agent decision-making</text>
<rect x="48" y="136" width="280" height="54" rx="9" fill="#63bda3" stroke="none" stroke-width="1.5" />
<text x="64" y="170" font-family="Arial" font-size="22" font-weight="bold" fill="#0d1420" text-anchor="start">01</text>
<text x="96" y="170" font-family="Arial" font-size="26" font-weight="bold" fill="#0d1420" text-anchor="start">Data &amp; Tasks</text>
<rect x="48" y="204" width="280" height="1018" rx="12" fill="#142b2a" stroke="#63bda3" stroke-width="1.5" />
<rect x="368" y="136" width="320" height="54" rx="9" fill="#56a8f5" stroke="none" stroke-width="1.5" />
<text x="384" y="170" font-family="Arial" font-size="22" font-weight="bold" fill="#0d1420" text-anchor="start">02</text>
<text x="416" y="170" font-family="Arial" font-size="26" font-weight="bold" fill="#0d1420" text-anchor="start">Pretraining</text>
<rect x="368" y="204" width="320" height="1018" rx="12" fill="#14263b" stroke="#56a8f5" stroke-width="1.5" />
<rect x="728" y="136" width="340" height="54" rx="9" fill="#a497f5" stroke="none" stroke-width="1.5" />
<text x="744" y="170" font-family="Arial" font-size="22" font-weight="bold" fill="#0d1420" text-anchor="start">03</text>
<text x="776" y="170" font-family="Arial" font-size="26" font-weight="bold" fill="#0d1420" text-anchor="start">Policy Optimization</text>
<rect x="728" y="204" width="340" height="1018" rx="12" fill="#25223b" stroke="#a497f5" stroke-width="1.5" />
<rect x="1108" y="136" width="310" height="54" rx="9" fill="#f2ac64" stroke="none" stroke-width="1.5" />
<text x="1124" y="170" font-family="Arial" font-size="22" font-weight="bold" fill="#0d1420" text-anchor="start">04</text>
<text x="1156" y="170" font-family="Arial" font-size="26" font-weight="bold" fill="#0d1420" text-anchor="start">Inference</text>
<rect x="1108" y="204" width="310" height="1018" rx="12" fill="#34291f" stroke="#f2ac64" stroke-width="1.5" />
<rect x="1458" y="136" width="294" height="54" rx="9" fill="#70b6d6" stroke="none" stroke-width="1.5" />
<text x="1474" y="170" font-family="Arial" font-size="22" font-weight="bold" fill="#0d1420" text-anchor="start">05</text>
<text x="1506" y="170" font-family="Arial" font-size="26" font-weight="bold" fill="#0d1420" text-anchor="start">Evaluation</text>
<rect x="1458" y="204" width="294" height="1018" rx="12" fill="#162c39" stroke="#70b6d6" stroke-width="1.5" />
<path d="M333 710 L360 710" fill="none" stroke="#63768f" stroke-width="2.5" />
<path d="M352 705 L360 710 L352 715" fill="none" stroke="#63768f" stroke-width="2.5" />
<path d="M693 710 L720 710" fill="none" stroke="#63768f" stroke-width="2.5" />
<path d="M712 705 L720 710 L712 715" fill="none" stroke="#63768f" stroke-width="2.5" />
<path d="M1073 710 L1100 710" fill="none" stroke="#63768f" stroke-width="2.5" />
<path d="M1092 705 L1100 710 L1092 715" fill="none" stroke="#63768f" stroke-width="2.5" />
<path d="M1423 710 L1450 710" fill="none" stroke="#63768f" stroke-width="2.5" />
<path d="M1442 705 L1450 710 L1442 715" fill="none" stroke="#63768f" stroke-width="2.5" />
<rect x="64" y="228.0" width="248" height="203.904" rx="8" fill="#0f1928" stroke="#344456" stroke-width="1.5" />
<text x="80" y="264.0" font-family="Arial" font-size="28" font-weight="bold" fill="#f1f5fa" text-anchor="start"><tspan x="80" y="264.0">Offline data</tspan></text>
<text x="80" y="307.0" font-family="Arial" font-size="26" font-weight="normal" fill="#bccbdd" text-anchor="start"><tspan x="80" y="307.0">Demonstrations</tspan></text>
<text x="80" y="340.0" font-family="Arial" font-size="26" font-weight="normal" fill="#bccbdd" text-anchor="start"><tspan x="80" y="340.0">Multi-agent</tspan><tspan x="80" y="373.0">trajectories</tspan></text>
<rect x="64" y="463.00800000000004" width="248" height="203.904" rx="8" fill="#0f1928" stroke="#344456" stroke-width="1.5" />
<text x="80" y="499.00800000000004" font-family="Arial" font-size="28" font-weight="bold" fill="#f1f5fa" text-anchor="start"><tspan x="80" y="499.00800000000004">Observations</tspan></text>
<text x="80" y="542.008" font-family="Arial" font-size="26" font-weight="normal" fill="#bccbdd" text-anchor="start"><tspan x="80" y="542.008">Robot state and</tspan><tspan x="80" y="575.008">images</tspan></text>
<text x="80" y="608.008" font-family="Arial" font-size="26" font-weight="normal" fill="#bccbdd" text-anchor="start"><tspan x="80" y="608.008">Agent</tspan><tspan x="80" y="641.008">observations</tspan></text>
<rect x="64" y="698.0160000000001" width="248" height="237.60000000000002" rx="8" fill="#0f1928" stroke="#344456" stroke-width="1.5" />
<text x="80" y="734.0160000000001" font-family="Arial" font-size="28" font-weight="bold" fill="#f1f5fa" text-anchor="start"><tspan x="80" y="734.0160000000001">Environment</tspan><tspan x="80" y="769.0160000000001">interaction</tspan></text>
<text x="80" y="812.0160000000001" font-family="Arial" font-size="26" font-weight="normal" fill="#bccbdd" text-anchor="start"><tspan x="80" y="812.0160000000001">Actions and</tspan><tspan x="80" y="845.0160000000001">feedback</tspan></text>
<text x="80" y="878.0160000000001" font-family="Arial" font-size="26" font-weight="normal" fill="#bccbdd" text-anchor="start"><tspan x="80" y="878.0160000000001">Rewards and</tspan><tspan x="80" y="911.0160000000001">transitions</tspan></text>
<text x="80" y="996.96" font-family="Arial" font-size="22" font-weight="bold" fill="#63bda3" text-anchor="start"><tspan x="80" y="996.96">APPLICATIONS</tspan></text>
<text x="80" y="1055.712" font-family="Arial" font-size="26" font-weight="normal" fill="#d7e3ef" text-anchor="start"><tspan x="80" y="1055.712">Robot manipulation</tspan></text>
<text x="80" y="1107.5520000000001" font-family="Arial" font-size="26" font-weight="normal" fill="#d7e3ef" text-anchor="start"><tspan x="80" y="1107.5520000000001">Cooperative control</tspan></text>
<rect x="384" y="228.0" width="288" height="314.49600000000004" rx="8" fill="#0f1928" stroke="#344456" stroke-width="1.5" />
<text x="400" y="264.0" font-family="Arial" font-size="28" font-weight="bold" fill="#f1f5fa" text-anchor="start"><tspan x="400" y="264.0">Representation</tspan><tspan x="400" y="299.0">regularization</tspan></text>
<text x="400" y="342.0" font-family="Arial" font-size="26" font-weight="normal" fill="#bccbdd" text-anchor="start"><tspan x="400" y="342.0">Preserve</tspan><tspan x="400" y="375.0">representation</tspan><tspan x="400" y="408.0">diversity</tspan></text>
<text x="400" y="441.0" font-family="Arial" font-size="26" font-weight="normal" fill="#bccbdd" text-anchor="start"><tspan x="400" y="441.0">during policy</tspan><tspan x="400" y="474.0">pretraining</tspan></text>
<text x="400" y="518.4960000000001" font-family="Arial" font-size="25" font-weight="bold" fill="#56a8f5" text-anchor="start"><tspan x="400" y="518.4960000000001">D2PPO · DM1</tspan></text>
<rect x="384" y="580.5120000000001" width="288" height="314.49600000000004" rx="8" fill="#0f1928" stroke="#344456" stroke-width="1.5" />
<text x="400" y="616.5120000000001" font-family="Arial" font-size="28" font-weight="bold" fill="#f1f5fa" text-anchor="start"><tspan x="400" y="616.5120000000001">One-step</tspan><tspan x="400" y="651.5120000000001">generation</tspan></text>
<text x="400" y="694.5120000000001" font-family="Arial" font-size="26" font-weight="normal" fill="#bccbdd" text-anchor="start"><tspan x="400" y="694.5120000000001">Pretrain models to</tspan><tspan x="400" y="727.5120000000001">generate</tspan></text>
<text x="400" y="760.5120000000001" font-family="Arial" font-size="26" font-weight="normal" fill="#bccbdd" text-anchor="start"><tspan x="400" y="760.5120000000001">actions in a single</tspan><tspan x="400" y="793.5120000000001">step</tspan></text>
<text x="400" y="975" font-family="Arial" font-size="22" font-weight="bold" fill="#56a8f5" text-anchor="start"><tspan x="400" y="975">PRETRAINING</tspan><tspan x="400" y="1004">OBJECTIVE</tspan></text>
<text x="400" y="1055" font-family="Arial" font-size="26" font-weight="normal" fill="#d7e3ef" text-anchor="start"><tspan x="400" y="1055">Learn useful</tspan><tspan x="400" y="1088">representations</tspan></text>
<text x="400" y="1121" font-family="Arial" font-size="26" font-weight="normal" fill="#d7e3ef" text-anchor="start"><tspan x="400" y="1121">and efficient action</tspan><tspan x="400" y="1154">generators.</tspan></text>
<rect x="744" y="228.0" width="308" height="273.02400000000006" rx="8" fill="#0f1928" stroke="#344456" stroke-width="1.5" />
<text x="760" y="264.0" font-family="Arial" font-size="28" font-weight="bold" fill="#f1f5fa" text-anchor="start"><tspan x="760" y="264.0">One-step generative</tspan><tspan x="760" y="299.0">models</tspan></text>
<text x="760" y="342.0" font-family="Arial" font-size="26" font-weight="normal" fill="#bccbdd" text-anchor="start"><tspan x="760" y="342.0">Optimize one-step</tspan><tspan x="760" y="375.0">policies</tspan></text>
<text x="760" y="477.02400000000006" font-family="Arial" font-size="25" font-weight="bold" fill="#a497f5" text-anchor="start"><tspan x="760" y="477.02400000000006">OGPO</tspan></text>
<rect x="744" y="535.5840000000001" width="308" height="273.02400000000006" rx="8" fill="#0f1928" stroke="#344456" stroke-width="1.5" />
<text x="760" y="571.5840000000001" font-family="Arial" font-size="28" font-weight="bold" fill="#f1f5fa" text-anchor="start"><tspan x="760" y="571.5840000000001">Diffusion models</tspan></text>
<text x="760" y="614.5840000000001" font-family="Arial" font-size="26" font-weight="normal" fill="#bccbdd" text-anchor="start"><tspan x="760" y="614.5840000000001">Optimize diffusion</tspan><tspan x="760" y="647.5840000000001">policies</tspan></text>
<text x="760" y="784.6080000000002" font-family="Arial" font-size="25" font-weight="bold" fill="#a497f5" text-anchor="start"><tspan x="760" y="784.6080000000002">D2PPO</tspan></text>
<rect x="744" y="843.1680000000001" width="308" height="307.584" rx="8" fill="#0f1928" stroke="#344456" stroke-width="1.5" />
<text x="760" y="879.1680000000001" font-family="Arial" font-size="28" font-weight="bold" fill="#f1f5fa" text-anchor="start"><tspan x="760" y="879.1680000000001">Multi-agent flow</tspan><tspan x="760" y="914.1680000000001">matching</tspan></text>
<text x="760" y="957.1680000000001" font-family="Arial" font-size="26" font-weight="normal" fill="#bccbdd" text-anchor="start"><tspan x="760" y="957.1680000000001">Optimize policies for</tspan></text>
<text x="760" y="990.1680000000001" font-family="Arial" font-size="26" font-weight="normal" fill="#bccbdd" text-anchor="start"><tspan x="760" y="990.1680000000001">cooperative</tspan><tspan x="760" y="1023.1680000000001">decision-making</tspan></text>
<text x="760" y="1126.7520000000002" font-family="Arial" font-size="25" font-weight="bold" fill="#a497f5" text-anchor="start"><tspan x="760" y="1126.7520000000002">MA-FPPO</tspan></text>
<rect x="1124" y="228.0" width="278" height="273.02400000000006" rx="8" fill="#0f1928" stroke="#344456" stroke-width="1.5" />
<text x="1140" y="264.0" font-family="Arial" font-size="28" font-weight="bold" fill="#f1f5fa" text-anchor="start"><tspan x="1140" y="264.0">Efficient inference</tspan></text>
<text x="1140" y="307.0" font-family="Arial" font-size="26" font-weight="normal" fill="#bccbdd" text-anchor="start"><tspan x="1140" y="307.0">Accelerate action</tspan><tspan x="1140" y="340.0">generation</tspan></text>
<text x="1140" y="373.0" font-family="Arial" font-size="26" font-weight="normal" fill="#bccbdd" text-anchor="start"><tspan x="1140" y="373.0">with one-step models</tspan></text>
<text x="1140" y="477.02400000000006" font-family="Arial" font-size="25" font-weight="bold" fill="#f2ac64" text-anchor="start"><tspan x="1140" y="477.02400000000006">DM1 · OGPO</tspan></text>
<rect x="1124" y="535.5840000000001" width="278" height="273.02400000000006" rx="8" fill="#0f1928" stroke="#344456" stroke-width="1.5" />
<text x="1140" y="571.5840000000001" font-family="Arial" font-size="28" font-weight="bold" fill="#f1f5fa" text-anchor="start"><tspan x="1140" y="571.5840000000001">Q-guided actions</tspan></text>
<text x="1140" y="614.5840000000001" font-family="Arial" font-size="26" font-weight="normal" fill="#bccbdd" text-anchor="start"><tspan x="1140" y="614.5840000000001">Guide actions toward</tspan></text>
<text x="1140" y="647.5840000000001" font-family="Arial" font-size="26" font-weight="normal" fill="#bccbdd" text-anchor="start"><tspan x="1140" y="647.5840000000001">higher estimated</tspan><tspan x="1140" y="680.5840000000001">value</tspan></text>
<text x="1140" y="784.6080000000002" font-family="Arial" font-size="25" font-weight="bold" fill="#f2ac64" text-anchor="start"><tspan x="1140" y="784.6080000000002">G2MAF</tspan></text>
<rect x="1124" y="843.1680000000001" width="278" height="307.584" rx="8" fill="#0f1928" stroke="#344456" stroke-width="1.5" />
<text x="1140" y="879.1680000000001" font-family="Arial" font-size="28" font-weight="bold" fill="#f1f5fa" text-anchor="start"><tspan x="1140" y="879.1680000000001">World-model</tspan><tspan x="1140" y="914.1680000000001">optimization</tspan></text>
<text x="1140" y="957.1680000000001" font-family="Arial" font-size="26" font-weight="normal" fill="#bccbdd" text-anchor="start"><tspan x="1140" y="957.1680000000001">Optimize decisions at</tspan><tspan x="1140" y="990.1680000000001">test time</tspan></text>
<text x="1140" y="1023.1680000000001" font-family="Arial" font-size="26" font-weight="normal" fill="#bccbdd" text-anchor="start"><tspan x="1140" y="1023.1680000000001">using world-model</tspan><tspan x="1140" y="1056.1680000000001">predictions</tspan></text>
<text x="1140" y="1126.7520000000002" font-family="Arial" font-size="25" font-weight="bold" fill="#f2ac64" text-anchor="start"><tspan x="1140" y="1126.7520000000002">MA-WAM</tspan></text>
<rect x="1474" y="228.0" width="262" height="300.672" rx="8" fill="#0f1928" stroke="#344456" stroke-width="1.5" />
<text x="1490" y="264.0" font-family="Arial" font-size="28" font-weight="bold" fill="#f1f5fa" text-anchor="start"><tspan x="1490" y="264.0">Task</tspan><tspan x="1490" y="299.0">performance</tspan></text>
<text x="1490" y="342.0" font-family="Arial" font-size="26" font-weight="normal" fill="#bccbdd" text-anchor="start"><tspan x="1490" y="342.0">Task success rate</tspan></text>
<text x="1490" y="375.0" font-family="Arial" font-size="26" font-weight="normal" fill="#bccbdd" text-anchor="start"><tspan x="1490" y="375.0">Episode return</tspan></text>
<text x="1490" y="408.0" font-family="Arial" font-size="26" font-weight="normal" fill="#bccbdd" text-anchor="start"><tspan x="1490" y="408.0">Win rate</tspan></text>
<rect x="1474" y="566.688" width="262" height="207.36" rx="8" fill="#0f1928" stroke="#344456" stroke-width="1.5" />
<text x="1490" y="602.688" font-family="Arial" font-size="28" font-weight="bold" fill="#f1f5fa" text-anchor="start"><tspan x="1490" y="602.688">Inference</tspan><tspan x="1490" y="637.688">efficiency</tspan></text>
<text x="1490" y="680.688" font-family="Arial" font-size="26" font-weight="normal" fill="#bccbdd" text-anchor="start"><tspan x="1490" y="680.688">Inference time</tspan></text>
<rect x="1474" y="812.064" width="262" height="269.56800000000004" rx="8" fill="#0f1928" stroke="#344456" stroke-width="1.5" />
<text x="1490" y="848.064" font-family="Arial" font-size="28" font-weight="bold" fill="#f1f5fa" text-anchor="start"><tspan x="1490" y="848.064">Real-world</tspan><tspan x="1490" y="883.064">evaluation</tspan></text>
<text x="1490" y="926.064" font-family="Arial" font-size="26" font-weight="normal" fill="#bccbdd" text-anchor="start"><tspan x="1490" y="926.064">Real-robot</tspan><tspan x="1490" y="959.064">performance</tspan></text>
<text x="1490" y="992.064" font-family="Arial" font-size="26" font-weight="normal" fill="#bccbdd" text-anchor="start"><tspan x="1490" y="992.064">Task execution</tspan><tspan x="1490" y="1025.0639999999999">outcomes</tspan></text>
<text x="1490" y="1140.384" font-family="Arial" font-size="26" font-weight="normal" fill="#9db0c8" text-anchor="start"><tspan x="1490" y="1140.384">Metrics depend on</tspan><tspan x="1490" y="1173.384">the task.</tspan></text>
</svg>